<?xml version="1.0" encoding="iso-8859-1"?>
<!-- Generator: Adobe Illustrator 19.0.0, SVG Export Plug-In . SVG Version: 6.00 Build 0)  -->
<svg version="1.1" id="Capa_1" xmlns="http://www.w3.org/2000/svg" xmlns:xlink="http://www.w3.org/1999/xlink" x="0px" y="0px"
	 viewBox="0 0 480.164 480.164" style="enable-background:new 0 0 480.164 480.164;" xml:space="preserve" >
<path style="fill:#CFF2F8;" d="M350.72,264.082H352c-32,48-28.72,52.32-36.48,89.68c-2.64,12.88-13.6,22.32-26.8,22.32h-97.44
	c-13.2,0-24.16-9.44-26.8-22.32c-7.76-37.36-4.48-41.68-36.48-89.68h1.28c-25.6-27.12-41.28-63.76-41.28-104
	c0-83.92,68.08-152,152-152s152,68.08,152,152C392,200.322,376.32,236.962,350.72,264.082z"/>
<path style="fill:#F88756;" d="M224,240.082v-184h-24c-8.837,0-16,7.163-16,16v8h-16c-8.837,0-16,7.163-16,16v32h-8
	c-8.837,0-16,7.163-16,16v56h32v24c0,8.837,7.163,16,16,16H224z"/>
<path style="fill:#3F708D;" d="M256,240.082v-184h24c8.837,0,16,7.163,16,16l0,8h16c8.837,0,16,7.163,16,16v32h8
	c8.837,0,16,7.163,16,16v40h-32v40c0,8.837-7.163,16-16,16H256z"/>
<g>
	<path style="fill:#2E5166;" d="M296,200.082h-16v-16c0-4.418,3.578-8,8-8h32v16h-24V200.082z"/>
	<path style="fill:#2E5166;" d="M296,136.082h-16v-16h-24v-16h32c4.422,0,8,3.582,8,8V136.082z"/>
</g>
<g>
	<path style="fill:#E15D2D;" d="M168,200.082h-16v-32c0-4.418,3.578-8,8-8h24v16h-16V200.082z"/>
	<rect x="176" y="80.082" style="fill:#E15D2D;" width="16" height="24"/>
</g>
<g>
	<path style="fill:#FFBE00;" d="M192,376.082h96c8.837,0,16,7.163,16,16v0c0,8.837-7.163,16-16,16h-96c-8.837,0-16-7.163-16-16v0
		C176,383.245,183.163,376.082,192,376.082z"/>
	<path style="fill:#FFBE00;" d="M200,408.082l80,0c8.837,0,16,7.163,16,16v0c0,8.837-7.163,16-16,16l-80,0c-8.837,0-16-7.163-16-16
		v0C184,415.245,191.163,408.082,200,408.082z"/>
	<path style="fill:#FFBE00;" d="M208,440.082h64c8.837,0,16,7.163,16,16v0c0,8.837-7.163,16-16,16h-64c-8.837,0-16-7.163-16-16v0
		C192,447.245,199.163,440.082,208,440.082z"/>
</g>
<rect x="196" y="239.03" transform="matrix(-0.9848 0.1738 -0.1738 -0.9848 458.43 576.0224)" style="fill:#E15D2D;" width="15.992" height="138.104"/>
<rect x="206.946" y="300.075" transform="matrix(-0.1739 0.9848 -0.9848 -0.1739 627.371 89.8524)" style="fill:#2E5166;" width="138.104" height="15.992"/>
<g>
	<path style="fill:#E7343A;" d="M448,288.082c-0.148,0-0.305-0.004-0.453-0.012c-3.438-0.199-6.359-2.566-7.266-5.883
		l-18.492-67.801l-14.633,29.273c-1.359,2.711-4.125,4.422-7.156,4.422h-32v-16h27.055l21.789-43.578
		c1.484-2.961,4.586-4.742,7.945-4.383c3.297,0.328,6.055,2.656,6.93,5.855l17.719,64.973l7.133-17.84
		c1.242-3.09,4.453-4.926,7.594-5.027l16,0.32l-0.328,16l-10.461-0.211l-13.945,34.863C454.211,286.102,451.258,288.082,448,288.082
		z"/>
	<path style="fill:#E7343A;" d="M80,288.082c-0.148,0-0.305-0.004-0.453-0.012c-3.438-0.199-6.359-2.566-7.266-5.883l-18.492-67.801
		L39.156,243.66c-1.359,2.711-4.125,4.422-7.156,4.422H0v-16h27.055l21.789-43.578c1.484-2.961,4.555-4.742,7.945-4.383
		c3.297,0.328,6.055,2.656,6.93,5.855l17.719,64.973l7.133-17.84c1.242-3.09,4.375-4.926,7.594-5.027l16,0.32l-0.328,16
		l-10.461-0.211L87.43,283.055C86.211,286.102,83.258,288.082,80,288.082z"/>
</g>
<path d="M464.164,232.082c-3.141,0.102-6.352,1.938-7.594,5.027l-7.133,17.84l-17.719-64.973c-0.875-3.199-3.633-5.527-6.93-5.855
	c-3.359-0.359-6.461,1.422-7.945,4.383l-21.789,43.578h-12.249c11.185-22.096,17.194-46.638,17.194-72c0-88.223-71.773-160-160-160
	s-160,71.777-160,160c0,25.371,6.015,49.92,17.206,72.021l-1.042-0.021c-3.219,0.102-6.352,1.938-7.594,5.027l-7.133,17.84
	l-17.719-64.973c-0.875-3.199-3.633-5.527-6.93-5.855c-3.391-0.359-6.461,1.422-7.945,4.383l-21.789,43.578H0v16h32
	c3.031,0,5.797-1.711,7.156-4.422l14.633-29.273l18.492,67.801c0.906,3.316,3.828,5.684,7.266,5.883
	c0.148,0.008,0.305,0.012,0.453,0.012c3.258,0,6.211-1.98,7.43-5.027l13.945-34.863l5.367,0.108
	c4.106,6.168,8.52,12.16,13.508,17.767c0.219,0.859,0.586,1.691,1.094,2.453c26.258,39.383,27.789,47.543,32.344,71.77
	c0.844,4.449,1.773,9.391,2.953,15.078c2.036,9.923,7.845,18.002,15.669,23.056c-2.702,3.883-4.31,8.58-4.31,13.659
	c0,8.523,4.497,15.975,11.211,20.233c-1.985,3.492-3.211,7.471-3.211,11.767c0,8.523,4.497,15.975,11.211,20.233
	c-1.985,3.492-3.211,7.471-3.211,11.767c0,13.234,10.766,24,24,24h64c13.234,0,24-10.766,24-24c0-4.296-1.226-8.274-3.211-11.767
	c6.714-4.259,11.211-11.71,11.211-20.233c0-4.296-1.226-8.274-3.211-11.767c6.714-4.259,11.211-11.71,11.211-20.233
	c0-5.079-1.607-9.775-4.309-13.658c7.824-5.052,13.632-13.125,15.668-23.037c1.18-5.707,2.109-10.648,2.953-15.098
	c4.555-24.227,6.086-32.387,32.344-71.77c0.508-0.762,0.875-1.594,1.094-2.453c5.047-5.673,9.51-11.737,13.654-17.984H400
	c3.031,0,5.797-1.711,7.156-4.422l14.633-29.273l18.492,67.801c0.906,3.316,3.828,5.684,7.266,5.883
	c0.148,0.008,0.305,0.012,0.453,0.012c3.258,0,6.211-1.98,7.43-5.027l13.945-34.863l10.461,0.211l0.328-16L464.164,232.082z
	 M288,384.082c4.414,0,8,3.59,8,8s-3.586,8-8,8h-8h-80h-8c-4.414,0-8-3.59-8-8s3.586-8,8-8H288z M288,424.082c0,4.41-3.586,8-8,8h-8
	h-64h-8c-4.414,0-8-3.59-8-8s3.586-8,8-8h80C284.414,416.082,288,419.672,288,424.082z M272,464.082h-64c-4.414,0-8-3.59-8-8
	s3.586-8,8-8h64c4.414,0,8,3.59,8,8S276.414,464.082,272,464.082z M344.898,258.59c-1.305,1.387-2.047,3.164-2.164,4.992
	c-25.586,38.84-27.563,49.379-32.148,73.75c-0.82,4.359-1.734,9.207-2.898,14.824c-1.922,9.375-9.727,15.926-18.969,15.926H288
	h-14.468l21.176-120H304c13.234,0,24-10.766,24-24v-32h24c4.422,0,8-3.582,8-8v-40c0-13.234-10.766-24-24-24v-24
	c0-13.234-10.766-24-24-24h-8c0-13.234-10.766-24-24-24h-24c-4.422,0-8,3.582-8,8v184c0,4.418,3.578,8,8,8h22.468l-21.176,120
	h-34.583l-21.176-120H224c4.422,0,8-3.582,8-8v-184c0-4.418-3.578-8-8-8h-24c-13.234,0-24,10.766-24,24h-8
	c-13.234,0-24,10.766-24,24v24c-13.234,0-24,10.766-24,24v56c0,4.418,3.578,8,8,8h24v16c0,13.234,10.766,24,24,24h9.292l21.176,120
	H192h-0.719c-9.242,0-17.047-6.551-18.969-15.945c-1.164-5.598-2.078-10.445-2.898-14.805c-4.586-24.371-6.563-34.91-32.148-73.75
	c-0.117-1.828-0.859-3.605-2.164-4.992C109.883,231.879,96,196.898,96,160.082c0-79.402,64.602-144,144-144s144,64.598,144,144
	C384,196.898,370.117,231.879,344.898,258.59z M264,120.082h16v16h16v-24c0-4.418-3.578-8-8-8h-24v-40h16c4.414,0,8,3.59,8,8v8
	c0,4.418,3.578,8,8,8h16c4.414,0,8,3.59,8,8v32c0,4.418,3.578,8,8,8h8c4.414,0,8,3.59,8,8v32h-24h-32c-4.422,0-8,3.582-8,8v16h16v-8
	h16v32c0,4.41-3.586,8-8,8h-40V120.082z M168,200.082v-24h16v-16h-24c-4.422,0-8,3.582-8,8v24h-16v-48c0-4.41,3.586-8,8-8h8
	c4.422,0,8-3.582,8-8v-32c0-4.41,3.586-8,8-8h8v16h16v-24v-8c0-4.41,3.586-8,8-8h16v168h-40c-4.414,0-8-3.59-8-8V200.082z"/>
<g>
</g>
<g>
</g>
<g>
</g>
<g>
</g>
<g>
</g>
<g>
</g>
<g>
</g>
<g>
</g>
<g>
</g>
<g>
</g>
<g>
</g>
<g>
</g>
<g>
</g>
<g>
</g>
<g>
</g>
</svg>
